<svg width="61" height="60" viewBox="0 0 61 60" fill="none" xmlns="http://www.w3.org/2000/svg">
<path d="M18.0305 19.5917C17.3385 19.403 17.6531 18.3335 18.3451 18.5222L23.1893 19.9063C23.4409 19.9692 23.5667 20.095 23.6296 20.3467L24.1958 23.9955L41.7481 26.3861C42.1255 26.449 42.3143 26.8265 42.1884 27.1411L39.1687 35.5712C39.1058 35.7599 38.8541 35.9486 38.6025 35.9486H25.3282C25.0766 35.9486 24.825 35.7599 24.762 35.5083L22.5601 20.8499L18.0305 19.5917ZM24.3217 25.1279L25.8315 34.8791H38.225L40.9302 27.3927L24.3217 25.1279Z" fill="#2AEFC3"/>
<path d="M27.7818 36.452C29.103 36.452 30.1725 37.5215 30.1725 38.8426C30.1725 40.1638 29.103 41.2332 27.7818 41.2332C26.4607 41.2332 25.3912 40.1638 25.3912 38.8426C25.3912 37.5215 26.4607 36.452 27.7818 36.452ZM27.7818 37.5844C27.0898 37.5844 26.5236 38.1506 26.5236 38.8426C26.5236 39.5346 27.0898 40.1008 27.7818 40.1008C28.4739 40.1008 29.0401 39.5346 29.0401 38.8426C29.0401 38.1506 28.4739 37.5844 27.7818 37.5844Z" fill="#2AEFC3"/>
<path d="M36.2749 36.452C37.596 36.452 38.6655 37.5215 38.6655 38.8426C38.6655 40.1638 37.596 41.2332 36.2749 41.2332C34.9537 41.2332 33.9471 40.1638 33.9471 38.8426C33.9471 37.5215 34.9537 36.452 36.2749 36.452ZM36.2749 37.5844C35.5828 37.5844 35.0166 38.1506 35.0166 38.8426C35.0166 39.5346 35.5828 40.1008 36.2749 40.1008C36.9669 40.1008 37.5331 39.5346 37.5331 38.8426C37.5331 38.1506 36.9669 37.5844 36.2749 37.5844Z" fill="#2AEFC3"/>
<circle cx="30.8571" cy="29.9524" r="29.4524" stroke="#2AEFC3"/>
</svg>
