<svg width="14" height="14" viewBox="0 0 14 14" fill="none" xmlns="http://www.w3.org/2000/svg">
<path d="M7 14C3.14011 14 0 10.8599 0 7C0 3.14011 3.14011 0 7 0C7.96563 0 8.9012 0.1932 9.7804 0.574C10.0641 0.697013 10.1946 1.02667 10.0716 1.31059C9.94859 1.59413 9.61893 1.72443 9.33501 1.60179C8.59731 1.28203 7.81163 1.12 7 1.12C3.75779 1.12 1.12 3.75779 1.12 7C1.12 10.2422 3.75779 12.88 7 12.88C10.2422 12.88 12.88 10.2422 12.88 7C12.88 5.86936 12.5518 4.76261 11.9457 3.81939L7.14523 9.74587C7.04872 9.86496 6.9076 9.93944 6.75472 9.95157C6.60184 9.96483 6.45064 9.91293 6.3364 9.81064L3.67136 7.42411C3.44101 7.21784 3.42141 6.86373 3.62787 6.63339C3.83395 6.40285 4.18805 6.38344 4.41859 6.58989L6.64533 8.58368L11.533 2.54949C11.6387 2.41901 11.7975 2.34285 11.9655 2.34192C12.1354 2.33315 12.2929 2.41584 12.3999 2.54539C13.4318 3.79493 14 5.37693 14 7C14 10.8599 10.8599 14 7 14Z" fill="#FFBF46"/>
</svg>
