<svg width="16" height="15" viewBox="0 0 16 15" fill="none" xmlns="http://www.w3.org/2000/svg">
<path d="M14.5089 9.4826C14.81 9.48542 15.0863 9.73946 15.08 10.0173V13.8876C15.08 14.1636 14.8079 14.4148 14.5087 14.4148H1.55957C1.26045 14.4148 0.988314 14.1636 0.988283 13.8876V10.0173C0.984017 9.73877 1.25772 9.4826 1.55957 9.4826C1.86142 9.4826 2.13512 9.73877 2.13085 10.0173V13.3604H13.9375V10.0173C13.9311 9.7358 14.2038 9.47966 14.5089 9.4826Z" fill="#818A96"/>
<path d="M8.03574 11.9488C8.1719 11.9439 8.32927 11.892 8.42852 11.8057L11.666 8.9873C11.8515 8.79632 11.9281 8.43011 11.7136 8.21665C11.5023 8.0064 11.0926 8.01266 10.8804 8.22211L8.60705 10.2038V1.20374C8.60705 0.911896 8.35126 0.675293 8.03574 0.675293C7.72021 0.675293 7.46443 0.911896 7.46443 1.20374V10.2038L5.19105 8.22211C4.99576 8.04179 4.57158 8.00846 4.35787 8.21665C4.14419 8.42479 4.21246 8.80416 4.4055 8.9873L7.64296 11.8057C7.75375 11.9021 7.88374 11.9491 8.03574 11.9488Z" fill="#818A96"/>
</svg>
