<svg width="14" height="14" viewBox="0 0 14 14" fill="none" xmlns="http://www.w3.org/2000/svg">
<path d="M7.00971 13.2191C6.85002 13.2191 6.69033 13.161 6.58871 13.0449L1.23184 7.70255C-0.292472 6.16372 -0.292472 3.66675 1.23184 2.14243C2.77067 0.603604 5.26764 0.603604 6.79195 2.14243L7.00971 2.36019L7.21295 2.15695C7.95333 1.41657 8.94051 1.01009 9.98575 1.01009C11.031 1.01009 12.0182 1.41657 12.7585 2.15695C14.2974 3.69578 14.2974 6.17823 12.7585 7.71706L7.43071 13.0449C7.32909 13.161 7.1694 13.2191 7.00971 13.2191ZM4.01915 2.2005C3.29329 2.2005 2.61098 2.49085 2.08836 2.99895C1.0286 4.05871 1.0286 5.78627 2.08836 6.84603L7.00971 11.7674L11.9311 6.84603C12.9908 5.78627 12.9908 4.05871 11.9311 2.99895C11.423 2.49085 10.7406 2.2005 10.0003 2.2005C9.2744 2.2005 8.59209 2.47633 8.08399 2.99895L7.44523 3.63771C7.32909 3.75385 7.18392 3.81192 7.02423 3.81192C6.86454 3.81192 6.70485 3.75385 6.60323 3.63771L5.96447 2.99895C5.42733 2.47633 4.74502 2.2005 4.01915 2.2005Z" fill="#818A96"/>
</svg>
