<svg width="19" height="17" viewBox="0 0 19 17" fill="none" xmlns="http://www.w3.org/2000/svg">
<path d="M0.598131 0.816758C0.0806555 0.675629 0.315872 -0.124107 0.833348 0.0170228L4.45568 1.05197C4.64385 1.09902 4.73794 1.1931 4.78498 1.38128L5.20837 4.10979L18.3334 5.89743C18.6157 5.94448 18.7568 6.22673 18.6627 6.46195L16.4047 12.7657C16.3576 12.9069 16.1695 13.048 15.9813 13.048H6.05515C5.86698 13.048 5.6788 12.9069 5.63176 12.7187L3.98525 1.75762L0.598131 0.816758ZM5.30246 4.95657L6.4315 12.2483H15.699L17.7219 6.65012L5.30246 4.95657Z" fill="#2AEFC3"/>
<path d="M7.88986 13.4243C8.87776 13.4243 9.6775 14.224 9.6775 15.2119C9.6775 16.1998 8.87776 16.9996 7.88986 16.9996C6.90195 16.9996 6.10221 16.1998 6.10221 15.2119C6.10221 14.224 6.90195 13.4243 7.88986 13.4243ZM7.88986 14.2711C7.37238 14.2711 6.94899 14.6945 6.94899 15.2119C6.94899 15.7294 7.37238 16.1528 7.88986 16.1528C8.40733 16.1528 8.83072 15.7294 8.83072 15.2119C8.83072 14.6945 8.40733 14.2711 7.88986 14.2711Z" fill="#2AEFC3"/>
<path d="M14.2405 13.4243C15.2284 13.4243 16.0282 14.224 16.0282 15.2119C16.0282 16.1998 15.2284 16.9996 14.2405 16.9996C13.2526 16.9996 12.4999 16.1998 12.4999 15.2119C12.4999 14.224 13.2526 13.4243 14.2405 13.4243ZM14.2405 14.2711C13.723 14.2711 13.2996 14.6945 13.2996 15.2119C13.2996 15.7294 13.723 16.1528 14.2405 16.1528C14.758 16.1528 15.1814 15.7294 15.1814 15.2119C15.1814 14.6945 14.758 14.2711 14.2405 14.2711Z" fill="#2AEFC3"/>
</svg>
