<svg width="60" height="60" viewBox="0 0 60 60" fill="none" xmlns="http://www.w3.org/2000/svg">
<circle cx="29.9524" cy="29.9524" r="29.4524" stroke="#CAD1DA"/>
<path d="M30.3929 19.381C31.6652 19.3778 32.9036 19.7917 33.9183 20.5593C34.933 21.3269 35.6682 22.406 36.0113 23.6312C36.3544 24.8565 36.2864 26.1604 35.8178 27.3434C35.3493 28.5263 34.5059 29.5231 33.4169 30.1811C35.7181 30.8383 37.7425 32.2273 39.1838 34.1378C40.6251 36.0483 41.4047 38.3763 41.4048 40.7695C41.4048 40.9379 41.3378 41.0995 41.2187 41.2187C41.0995 41.3378 40.9379 41.4048 40.7695 41.4048C40.601 41.4048 40.4394 41.3378 40.3202 41.2187C40.2011 41.0995 40.1342 40.9379 40.1342 40.7695C40.1342 38.1859 39.1078 35.7082 37.281 33.8813C35.4541 32.0545 32.9764 31.0282 30.3929 31.0282C27.8093 31.0282 25.3316 32.0545 23.5047 33.8813C21.6779 35.7082 20.6516 38.1859 20.6516 40.7695C20.6516 40.9379 20.5846 41.0995 20.4655 41.2187C20.3463 41.3378 20.1847 41.4048 20.0163 41.4048C19.8478 41.4048 19.6862 41.3378 19.567 41.2187C19.4479 41.0995 19.381 40.9379 19.381 40.7695C19.3797 38.3737 20.1597 36.043 21.6028 34.1306C23.0458 32.2183 25.0731 30.8287 27.3773 30.1726C26.293 29.5133 25.4539 28.5176 24.9879 27.3372C24.5219 26.1568 24.4545 24.8564 24.7961 23.6342C25.1376 22.412 25.8693 21.3349 26.8797 20.567C27.8901 19.7992 29.1238 19.3827 30.3929 19.381ZM30.3929 20.6516C29.4915 20.6516 28.6104 20.9188 27.861 21.4196C27.1116 21.9204 26.5274 22.6321 26.1825 23.4648C25.8376 24.2976 25.7473 25.2139 25.9232 26.0979C26.099 26.9819 26.5331 27.7939 27.1704 28.4313C27.8077 29.0686 28.6198 29.5026 29.5038 29.6785C30.3878 29.8543 31.3041 29.7641 32.1368 29.4191C32.9696 29.0742 33.6813 28.4901 34.1821 27.7407C34.6828 26.9912 34.9501 26.1101 34.9501 25.2088C34.9501 24.0001 34.47 22.841 33.6153 21.9864C32.7607 21.1317 31.6015 20.6516 30.3929 20.6516Z" fill="#CAD1DA"/>
</svg>
