<svg width="19" height="25" viewBox="0 0 19 25" fill="none" xmlns="http://www.w3.org/2000/svg">
<path fill-rule="evenodd" clip-rule="evenodd" d="M8.20876 12.674C8.77076 11.7509 8.77076 10.8278 8.32116 9.21245C7.53436 5.86629 7.75915 4.13552 10.6816 1.94322L12.1428 0.904755L12.48 2.63552C12.8172 4.48168 13.4916 5.63552 14.9528 7.94322C15.0652 8.0586 15.0652 8.0586 15.0652 8.17399C17.3132 11.4048 18.1 13.3663 18.1 16.8278C18.1 21.0971 13.9412 24.9048 9.10796 24.9048C4.27475 24.9048 0.11594 21.0971 0.11594 16.8278C0.11594 16.5971 0.11594 16.5971 0.11594 16.2509C0.00353998 13.4817 0.453141 11.4048 2.47634 9.09706C2.92595 8.63552 3.37555 8.17399 3.93755 7.71245L5.17395 6.67399L5.73595 8.17399C6.18555 9.21245 6.63515 10.1355 7.19715 10.7124C7.64676 11.2894 7.98396 11.8663 8.20876 12.674Z" fill="#FFBF46"/>
</svg>
