<svg width="16" height="16" viewBox="0 0 16 16" fill="none" xmlns="http://www.w3.org/2000/svg">
<path d="M15.6712 7.02313C15.6712 4.60971 13.7529 2.63958 11.403 2.63958H2.13129L3.4741 1.26048C3.66592 1.06347 3.66592 0.751528 3.4741 0.554514C3.28227 0.3575 2.97854 0.3575 2.78671 0.554514L0.628628 2.77092C0.532714 2.86943 0.484756 2.98435 0.484756 3.11569C0.484756 3.24704 0.532714 3.37838 0.628628 3.46047L2.80269 5.69329C2.89861 5.7918 3.02649 5.84105 3.13839 5.84105C3.26628 5.84105 3.37818 5.7918 3.4741 5.69329C3.66592 5.49628 3.66592 5.18434 3.4741 4.98732L2.13129 3.60823H11.403C13.2254 3.60823 14.7121 5.13508 14.7121 7.00672C14.7121 8.747 13.4332 10.1589 11.7867 10.3559V8.20522C11.7867 8.0082 11.6748 7.82761 11.499 7.76193L7.48652 5.87389C7.35864 5.80821 7.21476 5.80821 7.08688 5.87389L3.07445 7.76193C2.89861 7.84402 2.78671 8.02462 2.78671 8.20522V13.1962C2.78671 13.3932 2.89861 13.5738 3.07445 13.6395L7.08688 15.544C7.15082 15.5768 7.21476 15.5932 7.29469 15.5932C7.35864 15.5932 7.43857 15.5768 7.50251 15.544L11.5149 13.6559C11.6908 13.5738 11.8027 13.3932 11.8027 13.2126V11.3903C13.9608 11.1768 15.6712 9.30521 15.6712 7.02313ZM7.27871 6.85895L10.1402 8.20522L7.27871 9.55148L4.41726 8.20522L7.27871 6.85895ZM3.74585 8.97685L6.79913 10.4052V14.3126L3.74585 12.8843V8.97685ZM7.77427 14.3126V10.4052L10.8116 8.97685V12.8843L7.77427 14.3126Z" fill="#818A96"/>
</svg>
