<svg width="33" height="34" viewBox="0 0 33 34" fill="none" xmlns="http://www.w3.org/2000/svg">
<path d="M14.9032 0.659302C11.9745 0.659302 9.1115 1.52778 6.67634 3.1549C4.24117 4.78202 2.3432 7.09472 1.22241 9.80052C0.101631 12.5063 -0.191617 15.4837 0.379753 18.3562C0.951123 21.2287 2.36145 23.8672 4.43238 25.9381C6.50332 28.0091 9.14185 29.4194 12.0143 29.9908C14.8868 30.5621 17.8642 30.2689 20.57 29.1481C23.2758 28.0273 25.5885 26.1293 27.2156 23.6942C28.8427 21.259 29.7112 18.396 29.7112 15.4673C29.7112 11.54 28.1511 7.7735 25.3741 4.99646C22.597 2.21943 18.8305 0.659302 14.9032 0.659302ZM14.9032 27.3137C12.5602 27.3137 10.2698 26.6189 8.32171 25.3172C6.37358 24.0155 4.8552 22.1654 3.95857 20.0007C3.06195 17.8361 2.82735 15.4542 3.28445 13.1562C3.74154 10.8582 4.8698 8.74738 6.52655 7.09063C8.1833 5.43388 10.2941 4.30562 12.5921 3.84853C14.8901 3.39143 17.272 3.62603 19.4366 4.52265C21.6013 5.41928 23.4514 6.93766 24.7531 8.88579C26.0548 10.8339 26.7496 13.1243 26.7496 15.4673C26.7496 18.6092 25.5015 21.6223 23.2799 23.844C21.0583 26.0656 18.0451 27.3137 14.9032 27.3137ZM32.2434 32.8075C32.1057 32.9463 31.9419 33.0564 31.7615 33.1316C31.581 33.2068 31.3875 33.2455 31.192 33.2455C30.9965 33.2455 30.803 33.2068 30.6225 33.1316C30.4421 33.0564 30.2783 32.9463 30.1406 32.8075L27.179 29.8459C26.9002 29.567 26.7436 29.1888 26.7436 28.7945C26.7436 28.4002 26.9002 28.022 27.179 27.7431C27.4579 27.4643 27.8361 27.3076 28.2304 27.3076C28.6248 27.3076 29.0029 27.4643 29.2818 27.7431L32.2434 30.7047C32.3822 30.8424 32.4923 31.0062 32.5675 31.1866C32.6427 31.3671 32.6814 31.5606 32.6814 31.7561C32.6814 31.9516 32.6427 32.1451 32.5675 32.3256C32.4923 32.506 32.3822 32.6698 32.2434 32.8075Z" fill="#CAD1DA"/>
</svg>
