<svg width="14" height="16" viewBox="0 0 14 16" fill="none" xmlns="http://www.w3.org/2000/svg">
<path d="M11.2 0C9.65834 0 8.4 1.19842 8.4 2.66667C8.4 2.94394 8.44182 3.21251 8.525 3.46429L4.6375 5.99404C4.14498 5.58447 3.50226 5.33333 2.8 5.33333C1.25834 5.33333 0 6.53175 0 8C0 9.46825 1.25834 10.6667 2.8 10.6667C3.5018 10.6667 4.1451 10.415 4.6375 10.0059L8.53124 12.5298C8.4465 12.7837 8.4 13.0534 8.4 13.3333C8.4 14.8016 9.65834 16 11.2 16C12.7417 16 14 14.8016 14 13.3333C14 11.8651 12.7417 10.6667 11.2 10.6667C10.2365 10.6667 9.3854 11.1357 8.88124 11.8452L5.1625 9.42857C5.43962 9.01507 5.6 8.52491 5.6 8C5.6 7.47396 5.43444 6.98549 5.15624 6.57143L8.88124 4.15476C9.3854 4.86432 10.2365 5.33333 11.2 5.33333C12.7417 5.33333 14 4.13491 14 2.66667C14 1.19842 12.7417 0 11.2 0ZM11.2 0.761905C12.3093 0.761905 13.2 1.61019 13.2 2.66667C13.2 3.72314 12.3093 4.57143 11.2 4.57143C10.0907 4.57143 9.2 3.72314 9.2 2.66667C9.2 1.61019 10.0907 0.761905 11.2 0.761905ZM2.8 6.09524C3.9093 6.09524 4.8 6.94352 4.8 8C4.8 9.05648 3.9093 9.90476 2.8 9.90476C1.6907 9.90476 0.8 9.05648 0.8 8C0.8 6.94352 1.6907 6.09524 2.8 6.09524ZM11.2 11.4286C12.3093 11.4286 13.2 12.2768 13.2 13.3333C13.2 14.3898 12.3093 15.2381 11.2 15.2381C10.0907 15.2381 9.2 14.3898 9.2 13.3333C9.2 12.2768 10.0907 11.4286 11.2 11.4286Z" fill="#161B21"/>
</svg>
