<svg width="16" height="12" viewBox="0 0 16 12" fill="none" xmlns="http://www.w3.org/2000/svg">
<path d="M15.7303 9.69488V6.08997C15.7303 5.7236 15.6318 5.36377 15.4449 5.047L14.6341 3.66541C14.4919 3.42284 14.2875 3.22137 14.0412 3.0812C13.795 2.94103 13.5157 2.86709 13.2314 2.8668H10.2346V1.7807C10.2346 1.44181 10.0979 1.11681 9.85458 0.877179C9.61129 0.637551 9.28131 0.50293 8.93724 0.50293H1.56685C1.22278 0.50293 0.892802 0.637551 0.649507 0.877179C0.406213 1.11681 0.269531 1.44181 0.269531 1.7807V8.73655C0.269531 9.07544 0.406213 9.40044 0.649507 9.64007C0.892802 9.8797 1.22278 10.0143 1.56685 10.0143H2.3647C2.43941 10.424 2.65795 10.7947 2.9821 11.0618C3.30625 11.3288 3.71539 11.4751 4.13797 11.4751C4.56056 11.4751 4.9697 11.3288 5.29385 11.0618C5.618 10.7947 5.83654 10.424 5.91125 10.0143H10.9092C10.9839 10.424 11.2024 10.7947 11.5266 11.0618C11.8507 11.3288 12.2599 11.4751 12.6824 11.4751C13.105 11.4751 13.5142 11.3288 13.8383 11.0618C14.1625 10.7947 14.381 10.424 14.4557 10.0143H15.7303V9.69488ZM13.2281 3.51048C13.3987 3.51065 13.5663 3.55501 13.7141 3.63912C13.8618 3.72322 13.9844 3.8441 14.0698 3.98964L14.8546 5.32012H10.2346V3.51048H13.2281ZM2.36308 9.37703H1.56685C1.39481 9.37703 1.22983 9.30972 1.10818 9.18991C0.986531 9.0701 0.918191 8.90759 0.918191 8.73815V1.78389C0.918191 1.61445 0.986531 1.45195 1.10818 1.33213C1.22983 1.21232 1.39481 1.14501 1.56685 1.14501H8.93724C9.10928 1.14501 9.27427 1.21232 9.39591 1.33213C9.51756 1.45195 9.5859 1.61445 9.5859 1.78389V9.37544H5.91125C5.83654 8.96578 5.618 8.59502 5.29385 8.32799C4.9697 8.06096 4.56056 7.91465 4.13797 7.91465C3.71539 7.91465 3.30625 8.06096 2.9821 8.32799C2.65795 8.59502 2.43941 8.96578 2.3647 9.37544L2.36308 9.37703ZM4.13716 10.8353C3.90841 10.8353 3.6848 10.7685 3.49462 10.6433C3.30445 10.518 3.15625 10.3401 3.06879 10.1319C2.98132 9.92373 2.95852 9.69467 3.00326 9.47372C3.04801 9.25277 3.15829 9.04985 3.32016 8.89065C3.48202 8.73145 3.68819 8.62311 3.91259 8.57935C4.13698 8.53559 4.36951 8.55837 4.58076 8.64481C4.79201 8.73125 4.97247 8.87746 5.09933 9.06495C5.22618 9.25244 5.29372 9.47277 5.2934 9.69807C5.29254 9.99955 5.17034 10.2884 4.9536 10.5013C4.73686 10.7141 4.44325 10.8337 4.13716 10.8337V10.8353ZM10.9092 9.37544H10.2346V5.95581H15.0719C15.0719 6.00053 15.0817 6.04525 15.0817 6.08997V9.37544H14.4557C14.381 8.96578 14.1625 8.59502 13.8383 8.32799C13.5142 8.06096 13.105 7.91465 12.6824 7.91465C12.2599 7.91465 11.8507 8.06096 11.5266 8.32799C11.2024 8.59502 10.9839 8.96578 10.9092 9.37544ZM12.6832 10.8337C12.4545 10.834 12.2308 10.7675 12.0404 10.6425C11.8501 10.5176 11.7016 10.3399 11.6139 10.1318C11.5261 9.92373 11.503 9.6947 11.5474 9.47369C11.5918 9.25268 11.7018 9.04961 11.8635 8.89018C12.0251 8.73076 12.2311 8.62214 12.4555 8.57807C12.6798 8.534 12.9124 8.55645 13.1237 8.6426C13.3351 8.72875 13.5158 8.87471 13.6429 9.06202C13.77 9.24934 13.8379 9.46957 13.8379 9.69488C13.8379 9.99691 13.716 10.2866 13.4992 10.5001C13.2824 10.7137 12.9883 10.8337 12.6816 10.8337H12.6832Z" fill="#818A96"/>
</svg>
