<svg width="356" height="55" viewBox="0 0 356 55" fill="none" xmlns="http://www.w3.org/2000/svg">
<path d="M6.007 29.1469C6.11482 36.4015 12.9227 38.2806 19.0376 38.2806C25.4451 38.2806 29.9734 35.847 29.9734 31.4265C29.9734 27.7452 27.0777 26.205 22.4262 25.4195L13.2462 23.8946C8.42522 23.109 1.23219 21.1684 1.23219 13.2976C1.23219 5.9352 7.06977 0.990936 17.4511 0.990936C25.5529 0.990936 34.1167 3.93286 34.6866 13.6827H28.6796C28.1713 10.5098 26.3538 6.19702 16.6656 6.19702C12.2451 6.19702 7.25461 8.07613 7.25461 12.8355C7.25461 15.3308 8.90268 17.3177 13.8931 18.1648L23.8124 19.8745C26.9853 20.4444 35.9958 21.9693 35.9958 30.2405C35.9958 40.5602 26.7543 43.5021 18.5909 43.5021C9.4726 43.5021 0 40.3292 0 29.1623H6.007V29.1469Z" fill="#FDFDFD"/>
<path d="M56.2965 11.7414C67.8638 11.7414 73.532 19.0576 73.532 27.606C73.532 36.1699 67.8638 43.4861 56.2965 43.4861C44.7291 43.4861 39.061 36.1699 39.061 27.606C39.061 19.0576 44.7291 11.7414 56.2965 11.7414ZM56.2965 16.5008C48.0715 16.5008 45.068 22.2305 45.068 27.606C45.068 32.9969 48.0715 38.7113 56.2965 38.7113C64.5215 38.7113 67.525 32.9815 67.525 27.606C67.525 22.2305 64.5215 16.5008 56.2965 16.5008Z" fill="#FDFDFD"/>
<path d="M76.8743 12.758H82.5424V17.2401H82.6503C85.3149 13.0968 90.0127 11.7414 94.2638 11.7414C101.411 11.7414 106.74 14.8065 106.74 22.2306V42.4696H101.072V23.3703C101.072 19.0114 98.3455 16.5162 92.2769 16.5162C87.117 16.5162 82.527 19.5197 82.527 25.3573V42.4696H76.8589V12.758H76.8743Z" fill="#FDFDFD"/>
<path d="M136.683 12.7575H143.028L127.503 47.5673C124.669 53.867 122.451 54.9451 117.183 54.9451C115.766 54.9451 114.349 54.8373 112.87 54.7141V49.9547C113.887 50.0163 114.795 50.1857 116.151 50.1857C119.663 50.1857 120.525 49.4464 122.327 45.6574L123.637 42.9311L109.913 12.7728H116.428L126.625 36.2464L136.683 12.7575Z" fill="#FDFDFD"/>
<path d="M199.325 16.5625C198.416 10.9405 193.996 6.18108 185.493 6.18108C175.913 6.18108 169.844 11.6798 169.844 22.7389C169.844 30.394 173.988 38.2647 185.155 38.2647C192.24 38.2647 197.631 34.8607 199.325 26.99H205.332C204.362 35.9389 196.66 43.4862 185.093 43.4862C174.896 43.4862 163.837 37.8797 163.837 22.1074C163.837 10.3244 171.215 0.959625 185.047 0.959625C193.148 0.959625 204.315 4.4098 205.347 16.547H199.325V16.5625Z" fill="#FDFDFD"/>
<path d="M214.912 29.3159C215.359 35.4461 220.812 38.7269 225.848 38.7269C229.083 38.7269 233.503 37.6487 235.429 33.4592H241.436C238.602 40.606 231.979 43.4863 226.126 43.4863C214.558 43.4863 208.89 36.17 208.89 27.6062C208.89 19.0424 214.558 11.7261 226.126 11.7261C233.95 11.7261 242.221 16.2545 242.221 28.5612V29.3005H214.912V29.3159ZM236.23 24.8954C235.382 19.5045 231.178 16.5009 225.848 16.5009C220.642 16.5009 215.929 19.5661 215.082 24.8954H236.23Z" fill="#FDFDFD"/>
<path d="M245.748 12.758H251.416V17.2401H251.524C254.189 13.0968 258.902 11.7414 263.138 11.7414C270.285 11.7414 275.614 14.8065 275.614 22.2306V42.4696H269.946V23.3703C269.946 19.0114 267.22 16.5162 261.151 16.5162C255.991 16.5162 251.401 19.5197 251.401 25.3573V42.4696H245.733V12.758H245.748Z" fill="#FDFDFD"/>
<path d="M285.04 3.63931H290.708V12.773H299.211V17.1936H290.708V35.5073C290.708 37.8793 292.403 38.7264 295.298 38.7264C296.608 38.7264 297.901 38.557 299.211 38.326V43.0854C297.285 43.4242 295.191 43.4858 292.865 43.4858C287.304 43.4858 285.04 40.7595 285.04 36.4622V17.1936H278.925V12.773H285.04V3.63931V3.63931Z" fill="#FDFDFD"/>
<path d="M305.957 29.3159C306.404 35.4461 311.856 38.7269 316.893 38.7269C320.127 38.7269 324.548 37.6487 326.473 33.4592H332.48C329.646 40.606 323.008 43.4863 317.17 43.4863C305.603 43.4863 299.934 36.17 299.934 27.6062C299.934 19.0424 305.603 11.7261 317.17 11.7261C324.994 11.7261 333.266 16.2545 333.266 28.5612V29.3005H305.957V29.3159ZM327.274 24.8954C326.427 19.5045 322.222 16.5009 316.893 16.5009C311.687 16.5009 306.973 19.5661 306.126 24.8954H327.274Z" fill="#FDFDFD"/>
<path d="M336.793 12.7581H342.461V18.1952H342.569C345.234 13.4975 349.038 11.7261 352.765 11.7261C354.182 11.7261 354.922 11.7877 356 12.065V18.1798C354.583 17.841 353.505 17.6099 351.98 17.6099C346.373 17.6099 342.461 20.8907 342.461 27.3598V42.4389H336.793V12.7581V12.7581Z" fill="#FDFDFD"/>
</svg>
