<svg width="13" height="15" viewBox="0 0 13 15" fill="none" xmlns="http://www.w3.org/2000/svg">
<path d="M12.1617 3.70812C12.1474 3.33719 12.1474 2.98052 12.1474 2.63811C12.1474 2.36704 11.9334 2.15304 11.6623 2.15304C9.56513 2.13878 7.96725 1.53957 6.64043 0.255556C6.45496 0.0700879 6.14109 0.0700879 5.95563 0.255556C4.62881 1.53957 3.03093 2.13878 0.947976 2.13878C0.676907 2.13878 0.462905 2.35278 0.462905 2.62385C0.462905 2.96625 0.462905 3.32292 0.448638 3.70812C0.377304 7.23203 0.277437 12.0399 6.14109 14.0658C6.19816 14.0801 6.24096 14.0944 6.29803 14.0944C6.3551 14.0944 6.41216 14.0801 6.45496 14.0658C12.3186 12.0399 12.2188 7.23203 12.1617 3.70812ZM6.29803 13.0814C1.27611 11.2553 1.34745 7.26056 1.41878 3.73666C1.41878 3.52266 1.43305 3.32292 1.43305 3.12319C3.3876 3.02332 4.95695 2.43838 6.29803 1.2685C7.63911 2.43838 9.20846 3.03758 11.163 3.10892C11.163 3.30865 11.163 3.50839 11.1773 3.72239C11.2486 7.26056 11.3199 11.2553 6.29803 13.0814Z" fill="#818A96"/>
<path d="M7.98178 5.40578L5.62776 7.75981L4.61482 6.74687C4.42935 6.5614 4.11548 6.5614 3.91574 6.74687C3.73027 6.93233 3.73027 7.2462 3.91574 7.44594L5.27109 8.80129C5.37096 8.90115 5.48509 8.94395 5.61349 8.94395C5.7419 8.94395 5.8703 8.90115 5.9559 8.80129L8.66659 6.09059C8.85206 5.90512 8.85206 5.59125 8.66659 5.39152C8.48112 5.20605 8.16725 5.20605 7.98178 5.40578Z" fill="#818A96"/>
</svg>
